<svg width="153" height="32" viewBox="0 0 153 32" fill="none" xmlns="http://www.w3.org/2000/svg">
<g clip-path="url(#clip0_1_1258)">
<path d="M16.8234 29.4567C11.3396 27.4704 5.70868 26.8829 0 26.5025V1.37463C0.177608 1.57116 0.299517 1.69097 0.40461 1.82443C1.46185 3.16017 2.52855 4.4875 3.55742 5.84321C3.75709 6.10594 3.90422 6.48323 3.90528 6.80902C3.92629 11.7179 3.92629 16.6269 3.90423 21.5358C3.90107 22.1285 3.98935 22.3839 4.67666 22.4585C7.96084 22.82 11.2313 23.2793 14.361 24.4237C14.7593 24.5698 14.9716 24.7884 15.1209 25.1762C15.6558 26.5761 16.2254 27.9622 16.8234 29.4567Z" fill="#2580D5"/>
<path d="M39.3008 1.36411V26.5025C33.611 26.885 27.9833 27.4599 22.5289 29.4472C22.5857 29.257 22.6214 29.092 22.6834 28.9385C23.1878 27.6743 23.7102 26.4174 24.1978 25.1468C24.3386 24.7789 24.5446 24.5719 24.9177 24.4342C27.4914 23.4894 30.1703 23.027 32.8712 22.6603C33.5059 22.5741 34.1417 22.4585 34.7797 22.4364C35.2904 22.4196 35.3966 22.2147 35.3955 21.7428C35.3797 16.8328 35.3923 11.9239 35.3766 7.01393C35.3745 6.50423 35.4985 6.10382 35.8243 5.70657C36.8626 4.43494 37.8663 3.13283 38.8857 1.84438C38.9939 1.70671 39.1137 1.57955 39.3008 1.36411Z" fill="#2580D5"/>
<path d="M17.4918 16.8644C17.4834 17.7503 17.9268 18.3683 18.6972 18.7928C18.8832 18.8948 19.1165 19.1365 19.1176 19.3152C19.1417 22.7811 19.1354 26.2471 19.1323 29.7131C19.1323 29.7625 19.1028 29.8129 19.0429 30C18.5816 28.8587 18.1633 27.834 17.7534 26.8062C16.2832 23.129 14.8098 19.4518 13.3584 15.7661C13.2533 15.4971 13.2334 15.1387 13.3111 14.8613C13.7736 13.225 14.2633 11.5971 14.7751 9.97549C14.8991 9.58455 14.8287 9.37226 14.4945 9.13054C11.8461 7.21469 8.8846 5.9935 5.76122 5.11176C5.4617 5.02769 5.14747 4.8196 4.9499 4.57894C3.90842 3.30941 2.90163 2.0115 1.88432 0.722007C1.73824 0.537042 1.60162 0.344721 1.4072 0.0830383C6.42331 0.360485 10.914 1.90746 15.0305 4.56107C16.2748 5.36294 17.4623 6.25308 18.6825 7.09278C19.0041 7.31452 19.1512 7.56885 19.1459 7.98607C19.1228 10.089 19.1281 12.193 19.1428 14.2969C19.1459 14.6585 19.0671 14.8571 18.6993 15.0168C17.9174 15.3563 17.5002 16.0047 17.4918 16.8644Z" fill="#2580D5"/>
<path d="M37.8694 0.137673C37.7034 0.353114 37.5384 0.569607 37.3702 0.783998C36.3655 2.05878 35.3713 3.34197 34.3446 4.59889C34.1586 4.8259 33.8632 5.02347 33.5805 5.10229C30.4729 5.97142 27.5324 7.19155 24.884 9.06852C24.4921 9.34597 24.4017 9.59084 24.552 10.0564C25.069 11.6559 25.5388 13.2702 26.0043 14.8844C26.0706 15.1146 26.0926 15.4099 26.0075 15.6253C24.141 20.3314 22.2567 25.0301 20.3745 29.7299C20.3545 29.7814 20.3146 29.8266 20.2305 29.959C20.2 29.7572 20.1675 29.6374 20.1675 29.5176C20.1643 26.1704 20.1706 22.8232 20.158 19.477C20.1559 19.1092 20.2515 18.921 20.6109 18.7613C21.3876 18.4145 21.8059 17.7692 21.8132 16.9074C21.8195 16.0173 21.3907 15.3636 20.5889 15.0074C20.2536 14.8581 20.1559 14.6858 20.158 14.34C20.1717 12.1961 20.1569 10.0511 20.178 7.90724C20.1801 7.68234 20.2904 7.37652 20.4575 7.2462C24.3512 4.22056 28.5234 1.72669 33.4208 0.698872C34.8637 0.395152 36.3361 0.229104 37.7948 0C37.819 0.0462412 37.8442 0.0914314 37.8694 0.137673Z" fill="#2580D5"/>
</g>
<path d="M49.9928 25C48.9288 25 48.0234 24.8413 47.2768 24.524C46.5488 24.188 45.9981 23.6653 45.6248 22.956C45.2701 22.228 45.0928 21.276 45.0928 20.1V4.28H49.2368V19.428C49.2368 19.876 49.3114 20.24 49.4608 20.52C49.6288 20.8 49.8528 20.996 50.1328 21.108C50.4128 21.2013 50.7301 21.248 51.0848 21.248H57.6368V25H49.9928ZM66.2092 25.14C64.5478 25.14 63.2225 24.9253 62.2332 24.496C61.2438 24.048 60.5252 23.264 60.0772 22.144C59.6478 21.024 59.4332 19.4747 59.4332 17.496C59.4332 15.4613 59.6385 13.884 60.0492 12.764C60.4598 11.644 61.1505 10.86 62.1212 10.412C63.0918 9.964 64.4078 9.74 66.0692 9.74C67.5625 9.74 68.7572 9.88933 69.6532 10.188C70.5492 10.4867 71.1932 11.0093 71.5852 11.756C71.9958 12.5027 72.2012 13.5573 72.2012 14.92C72.2012 15.928 71.9958 16.7307 71.5852 17.328C71.1932 17.9067 70.6332 18.3267 69.9052 18.588C69.1772 18.8307 68.3185 18.952 67.3292 18.952H63.5492C63.5865 19.7173 63.6985 20.3333 63.8852 20.8C64.0905 21.248 64.4545 21.5747 64.9772 21.78C65.5185 21.9667 66.2932 22.06 67.3012 22.06H71.6972V24.496C70.9692 24.6453 70.1665 24.7947 69.2892 24.944C68.4305 25.0747 67.4038 25.14 66.2092 25.14ZM63.4932 16.488H66.9092C67.4692 16.488 67.8798 16.376 68.1412 16.152C68.4025 15.928 68.5332 15.5267 68.5332 14.948C68.5332 14.4067 68.4492 13.9773 68.2812 13.66C68.1132 13.324 67.8518 13.0907 67.4972 12.96C67.1425 12.8107 66.6665 12.736 66.0692 12.736C65.4345 12.736 64.9305 12.848 64.5572 13.072C64.1838 13.2773 63.9132 13.6507 63.7452 14.192C63.5772 14.7333 63.4932 15.4987 63.4932 16.488ZM78.1122 25.168C76.9736 25.168 76.0496 24.832 75.3402 24.16C74.6309 23.488 74.2762 22.5547 74.2762 21.36V20.016C74.2762 18.8773 74.6776 17.944 75.4802 17.216C76.2829 16.4693 77.5336 16.096 79.2322 16.096H83.0682V15.06C83.0682 14.5933 82.9842 14.2107 82.8162 13.912C82.6482 13.5947 82.3309 13.3707 81.8642 13.24C81.4162 13.0907 80.7256 13.016 79.7922 13.016H75.2842V10.608C76.0122 10.384 76.8522 10.188 77.8042 10.02C78.7749 9.852 79.9416 9.768 81.3042 9.768C82.5549 9.768 83.6189 9.91733 84.4962 10.216C85.3922 10.5147 86.0642 11.028 86.5122 11.756C86.9789 12.484 87.2122 13.492 87.2122 14.78V25H83.9362L83.2642 23.404C83.1336 23.5533 82.9096 23.7213 82.5922 23.908C82.2749 24.0947 81.8829 24.2907 81.4162 24.496C80.9682 24.6827 80.4549 24.8413 79.8762 24.972C79.3162 25.1027 78.7282 25.168 78.1122 25.168ZM80.2122 22.284C80.3989 22.284 80.6042 22.2653 80.8282 22.228C81.0709 22.172 81.3136 22.116 81.5562 22.06C81.8176 21.9853 82.0509 21.92 82.2562 21.864C82.4802 21.7893 82.6576 21.724 82.7882 21.668C82.9376 21.612 83.0309 21.5747 83.0682 21.556V18.056L80.5482 18.224C79.8202 18.28 79.2789 18.4667 78.9242 18.784C78.5882 19.1013 78.4202 19.5307 78.4202 20.072V20.688C78.4202 21.0613 78.4949 21.3693 78.6442 21.612C78.8122 21.8547 79.0269 22.032 79.2882 22.144C79.5682 22.2373 79.8762 22.284 80.2122 22.284ZM90.3148 25V9.964H93.5068L94.4588 12.26C95.0001 11.5693 95.6068 10.9813 96.2788 10.496C96.9694 10.0107 97.7814 9.768 98.7148 9.768C98.9201 9.768 99.1254 9.77733 99.3308 9.796C99.5548 9.81467 99.7601 9.852 99.9468 9.908V14.164C99.6668 14.1267 99.3681 14.0987 99.0508 14.08C98.7521 14.0427 98.4628 14.024 98.1828 14.024C97.6414 14.024 97.1468 14.0893 96.6988 14.22C96.2694 14.332 95.8681 14.5093 95.4948 14.752C95.1401 14.976 94.7948 15.2747 94.4588 15.648V25H90.3148ZM102.155 25V9.964H105.571L106.299 11.504C106.859 11.0373 107.559 10.6267 108.399 10.272C109.257 9.89867 110.135 9.712 111.031 9.712C112.263 9.712 113.215 9.95467 113.887 10.44C114.559 10.9253 115.025 11.5787 115.287 12.4C115.567 13.2027 115.707 14.0987 115.707 15.088V25H111.563V15.62C111.563 15.1347 111.469 14.7333 111.283 14.416C111.115 14.0987 110.872 13.856 110.555 13.688C110.237 13.52 109.855 13.436 109.407 13.436C109.015 13.436 108.632 13.4827 108.259 13.576C107.904 13.6693 107.559 13.8 107.223 13.968C106.905 14.136 106.597 14.332 106.299 14.556V25H102.155ZM119.311 7.752C118.919 7.752 118.723 7.56533 118.723 7.192V4.448C118.723 4.056 118.919 3.86 119.311 3.86H122.503C122.671 3.86 122.802 3.916 122.895 4.028C122.988 4.14 123.035 4.28 123.035 4.448V7.192C123.035 7.56533 122.858 7.752 122.503 7.752H119.311ZM118.807 25V9.964H122.951V25H118.807ZM127.171 25V13.296H125.043V10.636L127.171 9.964V8.956C127.171 7.68667 127.339 6.65067 127.675 5.848C128.03 5.02667 128.571 4.42933 129.299 4.056C130.027 3.664 130.988 3.468 132.183 3.468C132.836 3.468 133.424 3.51467 133.947 3.608C134.488 3.70133 134.936 3.79467 135.291 3.888V6.856H132.995C132.566 6.856 132.23 6.92133 131.987 7.052C131.744 7.18267 131.576 7.388 131.483 7.668C131.39 7.92933 131.343 8.284 131.343 8.732V9.964H135.151V13.296H131.343V25H127.171ZM141.831 31.636L143.455 25C142.615 25 141.878 24.8413 141.243 24.524C140.609 24.2067 140.077 23.7587 139.647 23.18C139.237 22.5827 138.919 21.8453 138.695 20.968L135.867 9.964H140.179L142.559 20.128C142.653 20.4827 142.774 20.7627 142.923 20.968C143.073 21.1733 143.231 21.3227 143.399 21.416C143.567 21.4907 143.717 21.5467 143.847 21.584C143.997 21.6027 144.109 21.612 144.183 21.612L146.899 9.964H151.099L146.619 28.864L145.275 31.636H141.831Z" fill="white"/>
<defs>
<clipPath id="clip0_1_1258">
<rect width="39.3008" height="30" fill="white"/>
</clipPath>
</defs>
</svg>
